<?xml version="1.0" encoding="utf-8"?>
<!-- Generator: Adobe Illustrator 27.0.1, SVG Export Plug-In . SVG Version: 6.00 Build 0)  -->
<svg version="1.1" id="Layer_1" xmlns="http://www.w3.org/2000/svg" xmlns:xlink="http://www.w3.org/1999/xlink" x="0px" y="0px"
	 viewBox="0 0 25.6 25.6" style="enable-background:new 0 0 25.6 25.6;" xml:space="preserve">
<style type="text/css">
	.st0{fill:#FFCD34;}
</style>
<g id="Group_26" transform="translate(1450.575 456)">
	<path id="Path_122" class="st0" d="M-1431-451.4c-0.8,0-1.5,0.7-1.5,1.5c0,0.8,0.7,1.5,1.5,1.5c0.8,0,1.5-0.7,1.5-1.5
		C-1429.5-450.8-1430.2-451.4-1431-451.4"/>
	<path id="Path_123" class="st0" d="M-1437.7-449.5c-3.5,0-6.3,2.8-6.3,6.3c0,3.5,2.8,6.3,6.3,6.3s6.3-2.8,6.3-6.3c0,0,0,0,0,0
		C-1431.4-446.7-1434.2-449.5-1437.7-449.5 M-1437.7-439.2c-2.2,0-4-1.8-4-4s1.8-4,4-4c2.2,0,4,1.8,4,4
		C-1433.6-441-1435.4-439.2-1437.7-439.2"/>
	<path id="Path_124" class="st0" d="M-1432.7-430.4h-10.2c-4.2,0-7.7-3.4-7.7-7.7v-10.2c0-4.2,3.4-7.7,7.7-7.7h10.2
		c4.2,0,7.7,3.4,7.7,7.7v10.2C-1425-433.8-1428.4-430.4-1432.7-430.4 M-1442.9-453.6c-2.9,0-5.3,2.4-5.3,5.3v10.2
		c0,2.9,2.4,5.3,5.3,5.3h10.2c2.9,0,5.3-2.4,5.3-5.3v-10.2c0-2.9-2.4-5.3-5.3-5.3H-1442.9z"/>
</g>
</svg>
