<?xml version="1.0" encoding="utf-8"?>
<!-- Generator: Adobe Illustrator 27.0.1, SVG Export Plug-In . SVG Version: 6.00 Build 0)  -->
<svg version="1.1" id="Layer_1" xmlns="http://www.w3.org/2000/svg" xmlns:xlink="http://www.w3.org/1999/xlink" x="0px" y="0px"
	 viewBox="0 0 31.1 25.6" style="enable-background:new 0 0 31.1 25.6;" xml:space="preserve">
<style type="text/css">
	.st0{fill:#FFCD34;}
</style>
<path id="Path_126" class="st0" d="M31,3.1c-1,0.4-2.1,0.7-3.1,0.9c0.5-0.1,1.2-1,1.5-1.4c0.5-0.6,0.8-1.2,1-1.9c0-0.1,0-0.1,0-0.2
	c-0.1,0-0.1,0-0.2,0c-1.2,0.6-2.4,1.1-3.7,1.4c-0.1,0-0.2,0-0.3-0.1c-0.1-0.1-0.2-0.2-0.3-0.3c-0.5-0.5-1.1-0.8-1.8-1.1
	C23.3,0.1,22.3,0,21.4,0c-0.9,0.1-1.8,0.3-2.6,0.7c-0.8,0.4-1.5,1-2.1,1.7c-0.6,0.7-1,1.6-1.3,2.5c-0.2,0.9-0.2,1.8-0.1,2.7
	c0,0.2,0,0.2-0.1,0.2C10,7.1,5.8,5.3,2.3,1.3C2.2,1.2,2.1,1.2,2,1.3C0.5,3.6,1.2,7.2,3.1,9c0.3,0.2,0.5,0.5,0.8,0.7
	C3,9.7,2.2,9.4,1.4,9C1.2,8.9,1.2,9,1.2,9.2c0,0.2,0,0.5,0,0.7c0.3,2.4,1.9,4.4,4.1,5.2c0.3,0.1,0.5,0.2,0.8,0.3
	c-0.8,0.2-1.6,0.2-2.4,0.1c-0.2,0-0.2,0.1-0.2,0.2c0.8,2.2,2.8,3.8,5.1,4.3C8.8,20,9,20,9.3,20c0,0,0,0,0,0
	c-0.6,0.9-2.6,1.5-3.5,1.8c-1.7,0.6-3.5,0.8-5.3,0.7c-0.3,0-0.3,0-0.4,0s0,0.1,0.1,0.2c0.4,0.2,0.7,0.4,1.1,0.7
	c1.1,0.6,2.3,1.1,3.5,1.4c6.4,1.8,13.5,0.5,18.3-4.3c3.7-3.7,5.1-8.9,5.1-14c0-0.2,0.2-0.3,0.4-0.4c1-0.7,1.8-1.6,2.5-2.6
	c0.1-0.1,0.2-0.3,0.2-0.5v0C31.1,3,31.1,3,31,3.1"/>
</svg>
