<?xml version="1.0" encoding="utf-8"?>
<!-- Generator: Adobe Illustrator 27.0.1, SVG Export Plug-In . SVG Version: 6.00 Build 0)  -->
<svg version="1.1" id="Layer_1" xmlns="http://www.w3.org/2000/svg" xmlns:xlink="http://www.w3.org/1999/xlink" x="0px" y="0px"
	 viewBox="0 0 26 18.2" style="enable-background:new 0 0 26 18.2;" xml:space="preserve">
<style type="text/css">
	.st0{fill:#FFCD34;}
</style>
<path id="Path_127" class="st0" d="M26,5.7C26,2.6,23.5,0,20.3,0c0,0,0,0,0,0H5.7C2.6,0,0,2.6,0,5.7c0,0,0,0,0,0v6.8
	c0,3.2,2.6,5.7,5.7,5.7c0,0,0,0,0,0h14.6c3.2,0,5.7-2.6,5.7-5.7l0,0V5.7z M17.4,9.6l-6.5,3.2c-0.3,0.1-1.1,0-1.1-0.3V5.9
	c0-0.3,0.9-0.5,1.1-0.3l6.3,3.4C17.4,9.1,17.7,9.5,17.4,9.6"/>
</svg>
