<?xml version="1.0" encoding="utf-8"?>
<!-- Generator: Adobe Illustrator 27.0.1, SVG Export Plug-In . SVG Version: 6.00 Build 0)  -->
<svg version="1.1" id="Layer_1" xmlns="http://www.w3.org/2000/svg" xmlns:xlink="http://www.w3.org/1999/xlink" x="0px" y="0px"
	 viewBox="0 0 464.2 108.9" style="enable-background:new 0 0 464.2 108.9;" xml:space="preserve">
<style type="text/css">
	.st0{fill:#00594E;}
	.st1{fill:#FFE2A4;}
	.st2{fill:#FFC844;}
	.st3{fill:#498076;}
	.st4{fill:#FFFFFF;}
</style>
<g>
	<g>
		<path class="st0" d="M182.5,27.7c0.3-0.5,1.9-2.6,1.9-2.6h-7.7l0.7,1.1c0.1,0.1,0.3,0.5,0.3,0.8c0,0.2,0,0.4-0.1,0.5
			c-0.1,0.2-7.1,21.2-7.1,21.2s-7.3-20.4-7.4-20.7c-0.2-0.6,0-1.4,0.1-1.8c0.1-0.4,0.7-1.2,0.7-1.2h-9.2c0,0,1,0.8,1.8,1.7
			c0.7,0.7,1.2,1.6,1.2,1.7l1.5,4l-6.1,16.3c0,0-7.2-20.6-7.4-21.2c-0.2-0.6,0.1-1,0.3-1.3l0.8-1.2h-10.1c0,0,1.3,0.5,2.1,1.3
			c0.8,0.7,1.5,1.6,2,2.8c0.4,1.2,12.1,32.6,12.1,32.6l8.5-23.5l8.7,23.3c0,0,11.6-32.3,11.7-32.6C181.9,28.8,182.2,28.2,182.5,27.7
			z"/>
		<path class="st0" d="M342.1,42.9c-1.2-0.7-2.5-1.4-3.7-2.1l-5.3-3.1c-1.1-0.7-2-1.3-2.5-1.8c-0.6-0.7-1-1.5-1-2.3
			c0-1.5,0.6-2.7,1.9-3.6c1.4-1,2.9-1.5,4.7-1.5c1.3,0,2.4,0.2,3.3,0.5c0.9,0.3,1.7,0.8,2.5,1.6l1.3,1.2v-5.7l-0.5-0.2
			c-1.4-0.6-3.2-0.9-4.3-1s-6.7-0.7-10.5,2.2c-2.3,1.8-3.5,3.9-3.5,6.6c0,1.9,0.5,3.5,1.5,4.9c0.9,1.2,2.2,2.3,4,3.4l6,3.5
			c1.5,0.9,2.7,1.7,3.4,2.4c0.9,0.9,1.3,2,1.3,3.2c0,1.8-0.6,3.1-1.9,4.1c-1.4,1-3.3,1.5-5.7,1.5c-1.7,0-3-0.1-4.1-0.4
			c-1.1-0.3-2.1-0.8-3.1-1.7l-1.2-1v5.5c3.8,1.9,12.4,1.9,17.2-0.6c3.1-1.7,4.6-4.3,4.6-7.9c0-1.9-0.4-3.5-1.2-4.8
			C344.5,44.8,343.5,43.8,342.1,42.9z"/>
		<path class="st0" d="M270.2,25.1c0,0,0.5,1.2,0.8,2.2c0.1,0.6,0.2,1.1,0.2,1.5c0,0.2,0,21.6,0,21.6L249,25.1h-7.5
			c1.1,0.8,2.4,1.7,2.6,2.2s0.2,1,0.2,1.4c0,0,0,27.1,0,27.4c0,0.3,0,1.2-0.4,2c-0.4,0.8-1,1.6-1,1.6h6.6c0,0-0.5-1.5-0.8-2.6
			c-0.2-1.1-0.2-1.7-0.2-2V32.5L275.3,62c0,0,0-32.9,0-33.2c0-0.3,0.1-0.8,0.2-1.5c0.2-1.1,0.8-2.2,0.8-2.2H270.2z"/>
		<path class="st0" d="M300.2,55.8h-9.9V42.4h8.5c0.9,0,2.1,0.4,2.7,0.6l1,0.5v-5h-12.3v-9.4h9.1c1,0,1.5,0.2,2.1,0.8l1.2,1.1v-5.9
			h-19.4c0,0,1.1,1.2,1.2,1.3c0.1,0.1,0.4,0.5,0.5,0.8c0.1,0.3,0.2,0.7,0.2,1.1V57c0,1.2-1.2,2.7-1.2,2.7h20.9l1.9-6.3l-1.7,1.2
			c-0.2,0.2-1.1,0.6-2.2,0.9C301.8,55.8,300.5,55.8,300.2,55.8z"/>
		<path class="st0" d="M375.9,25.1L375.9,25.1L375.9,25.1h-26.1l-1.2,5.8c0,0,1.5-0.9,1.9-1.2c0.4-0.3,1-0.5,2.1-0.5
			c0.5,0,7.6,0,7.6,0l0,0h0c0,0,0,27.2,0,27.5c0,1-0.7,2.2-1.1,3h0.3h4.2h3.1c-0.4-0.8-1.1-2-1.1-3c0-0.3,0-27.5,0-27.5s7,0,7.5,0
			c1.1,0,1.6,0.3,2.1,0.5c0.4,0.3,1.9,1.2,1.9,1.2L375.9,25.1z"/>
		<path class="st0" d="M435.3,25.1L435.3,25.1L435.3,25.1h-26.1l-1.2,5.8c0,0,1.5-0.9,1.9-1.2c0.4-0.3,1-0.5,2.1-0.5
			c0.5,0,7.6,0,7.6,0l0,0h0c0,0,0,27.2,0,27.5c0,1-0.7,2.2-1.1,3h0.3h4.2h3.1c-0.4-0.8-1.1-2-1.1-3c0-0.3,0-27.5,0-27.5
			c0.9,0,7,0,7.5,0c1.1,0,1.6,0.3,2.1,0.5c0.4,0.3,1.9,1.2,1.9,1.2L435.3,25.1z"/>
		<path class="st0" d="M457.7,55.8h-9.9V42.4h8.5c0.9,0,2.1,0.4,2.7,0.6l1,0.5v-5h-12.3v-9.4h9.1c1,0,1.5,0.2,2.1,0.8L460,31v-5.9
			h-19.4c0,0,1.1,1.2,1.2,1.3c0.1,0.1,0.4,0.5,0.5,0.8c0.1,0.3,0.2,0.7,0.2,1.1V57c0,1.2-1.2,2.7-1.2,2.7h20.9l1.9-6.3l-1.7,1.2
			c-0.2,0.2-1.1,0.6-2.2,0.9C459.3,55.8,458.1,55.8,457.7,55.8z"/>
		<path class="st0" d="M211.1,54.9c-0.2-0.5-13.1-29.8-13.1-29.8h-5.4c0,0,0.1,0.5,0.2,0.9s0.2,1.7,0,2.2
			c-0.2,0.5-11.5,26.8-11.5,26.8c-0.2,0.4-0.7,1.5-1.5,2.5c-1,1.2-2.3,2.3-2.3,2.3h7.6c0,0-0.1-0.5-0.2-0.8c-0.1-0.2-0.2-0.7-0.1-1
			s4.5-10.9,4.5-10.9H202l4.1,9.2c0,0.1,0.3,0.7,0.4,1.3c0,0.5-0.1,1-0.2,1.2l-0.4,1h8.4c0,0-0.9-1.1-1.8-2.3
			C211.8,56.4,211.3,55.3,211.1,54.9z M190.8,43.3l4.7-11.3l4.9,11.3H190.8z"/>
		<path class="st0" d="M407.5,54.9c-0.2-0.5-13.1-29.8-13.1-29.8H389c0,0,0.1,0.5,0.2,0.9c0.1,0.4,0.2,1.7,0,2.2
			c-0.2,0.5-11.5,26.8-11.5,26.8c-0.2,0.4-0.7,1.5-1.5,2.5c-1,1.2-2.3,2.3-2.3,2.3h7.6c0,0-0.1-0.5-0.2-0.8c-0.1-0.2-0.2-0.7-0.1-1
			s4.5-10.9,4.5-10.9h12.8l4.1,9.2c0,0.1,0.3,0.7,0.4,1.3c0,0.5-0.1,1-0.2,1.2l-0.4,1h8.4c0,0-0.9-1.1-1.8-2.3
			C408.2,56.4,407.6,55.3,407.5,54.9z M387.1,43.3l4.7-11.3l4.9,11.3H387.1z"/>
		<path class="st0" d="M236.2,27.3c0.3-0.5,2.3-2.2,2.3-2.2h-0.9h-6.4h0c0,0,0,0,0,0.1l0,0.7c0,0.3,0,0.5,0,0.7c0,0,0,0.1,0,0.1
			c-0.1,0.4-0.3,0.8-0.5,1.1l-6.6,10.5l-6.3-10.2c-0.2-0.4-0.5-0.8-0.7-1.4c-0.2-0.5,0-1.6,0-1.6h-8c0,0,2,1.7,2.3,2.2
			c0.4,0.5,9.7,15.1,9.7,15.1v15.1c0,0.2,0,0.2,0,0.3l0,0.1c0,0.1,0,0.3-0.3,0.8l-0.4,1h2.8h2.1h1.5l-0.4-1
			c-0.2-0.5-0.2-0.8-0.3-0.8l0-0.1c0,0,0-0.1,0-0.3V42.5C226.2,42.5,235.9,27.8,236.2,27.3z"/>
	</g>
	<g>
		<path class="st0" d="M247.1,93.2c0,0,0-0.1-0.1-0.3c0-0.2,0-0.6-0.1-1c0-0.4,0-0.9,0-1.4V75.7c0-0.1,0-0.2,0-0.4
			c0-0.2,0.1-0.4,0.1-0.6c0.1-0.2,0.1-0.4,0.3-0.6l0.5-1.1h-5.9l0.7,1.1c0.2,0.2,0.3,0.5,0.3,0.6c0.1,0.3,0.1,0.4,0.1,0.5
			c0,0.1,0,0.3,0,0.5v16.4c0,0.2,0,0.4,0,0.5c0,0.1,0,0.2-0.1,0.3c0,0.1-0.1,0.2-0.3,0.5l-0.8,1.1h6l-0.9-1.2
			C247.2,93.4,247.2,93.3,247.1,93.2z"/>
		<path class="st0" d="M229.6,73.1l0.4,1.7l0,0c0.1,0.3,0.1,0.5,0.1,0.6c0,0.2,0,0.4,0,0.8V88L217,73.1l-5.6,0l1.7,1.2
			c0.2,0.1,0.4,0.4,0.5,0.5c0.1,0.1,0.1,0.5,0.1,0.7l0,16.6c0,0.1,0,0.3,0,0.5c0,0.2,0,0.5-0.3,0.9c-0.3,0.4-0.8,1.1-0.8,1.1h4.9
			c0,0-0.3-0.8-0.4-1.4c-0.2-0.6-0.2-1.3-0.2-1.7V78.5l16.3,18v-21c0-0.1,0-0.4,0.1-0.7c0.1-0.3,0.2-0.7,0.2-0.7l0.3-1H229.6z"/>
		<path class="st0" d="M346.6,85.8c-0.4-0.7-1-1.3-1.9-1.9l0,0c-0.8-0.4-1.5-0.9-2.3-1.3l-3.2-1.9c-0.7-0.4-1.2-0.8-1.5-1.1
			c-0.3-0.4-0.5-0.8-0.6-1.3c0-0.8,0.3-1.5,1.1-2c0.8-0.6,1.7-0.9,2.7-0.9c0.7,0,1.4,0.1,1.9,0.3c0.5,0.2,1,0.5,1.4,0.9l1.2,1.2
			v-4.3l-0.4-0.2c-0.9-0.4-1.8-0.6-2.7-0.7c-0.2,0-4.2-0.4-6.6,1.4c-1.5,1.2-2.3,2.6-2.3,4.3c0,1.2,0.3,2.3,1,3.2
			c0.5,0.8,1.4,1.5,2.5,2.1l3.7,2.1c0.9,0.5,1.6,1,2,1.4c0.5,0.5,0.7,1.1,0.7,1.8c0,1-0.3,1.7-1.1,2.3c-0.8,0.6-1.9,0.9-3.3,0.9
			c-1,0-1.8-0.1-2.5-0.3c-0.6-0.2-1.2-0.5-1.8-1l-1.2-1v4.1l0.2,0.1c1.1,0.5,2.9,0.8,4.8,0.8c2.1,0,4.4-0.4,6-1.2
			c2-1.1,2.9-2.8,2.9-5.1C347.3,87.6,347.1,86.6,346.6,85.8z"/>
		<path class="st0" d="M387.6,73.3l0-0.2h-16.4l-0.9,4.3l0.5-0.3c0,0,0.9-0.6,1.2-0.7c0.3-0.2,0.5-0.3,1.1-0.3c0.3,0,3.4,0,4.4,0
			v16.6c0,0.5-0.3,1.1-0.6,1.6l-0.3,0.5h5.1h0.4l-0.3-0.5c-0.2-0.4-0.6-1.1-0.6-1.6V76.1c0,0,4,0,4.3,0c0.6,0,0.9,0.1,1.1,0.3
			c0.3,0.2,1.2,0.7,1.2,0.7l0.5,0.3L387.6,73.3z"/>
		<path class="st0" d="M409.2,73.1l0.1,0.8c0,0.1,0,0.3,0,0.4c0,0.1-0.1,0.2-0.1,0.3c0,0,0,0.1-0.1,0.1l-3.9,6.2l-3.6-5.8
			c-0.1-0.3-0.2-0.4-0.3-0.4c-0.1-0.1-0.1-0.2-0.1-0.3c0-0.1,0-0.2,0-0.4l0.1-0.8h-5.9l0.6,0.5c0.5,0.4,1.2,1.1,1.4,1.3
			c0.2,0.3,5.3,8.3,5.8,9.2v9.1c0,0.1,0,0.1,0,0.1l0,0.1c0,0,0,0.1-0.1,0.4l-0.4,1h4.7l-0.4-1c-0.1-0.3-0.1-0.4-0.1-0.5l0-0.1
			c0,0,0,0,0-0.1V84c0.5-0.8,5.9-8.9,6.1-9.2c0.1-0.2,0.9-0.9,1.4-1.3l0.6-0.5H409.2z"/>
		<path class="st0" d="M360.8,75c0-0.6,0.5-1.4,0.7-1.9h-5.1c0.3,0.5,0.7,1.3,0.7,1.9c0,0.5,0,17.6,0,17.8c0,0.6-0.5,1.4-0.7,1.9
			h5.1c-0.3-0.5-0.7-1.3-0.7-1.9C360.8,92.6,360.8,75.5,360.8,75z"/>
		<path class="st0" d="M267.7,88.4l6.2-13.3c0.1-0.3,0.3-0.5,0.3-0.7c0-0.2-0.6-1.2-0.6-1.2h5.4c0,0-1.5,2-1.6,2.3
			c-0.2,0.3-9.7,20.7-9.7,20.7s-10.2-20.9-10.4-21.3c-0.2-0.3-1.1-1-1.5-1.2l-0.7-0.5h6.6c0,0-0.6,1-0.6,1.2c0,0.2,0.1,0.4,0.3,0.7
			L267.7,88.4z"/>
		<path class="st0" d="M320.9,94.8h6.1c0,0-2-1.2-2.5-1.7c-0.5-0.4-1-0.9-1.3-1.3c-0.1-0.1-0.4-0.5-0.8-1.1l-5.5-6.9
			c1.1-0.2,2.1-0.7,2.9-1.6c1.1-1.1,1.6-2.4,1.6-3.9c0-1.6-0.6-2.9-1.7-3.9c-1.1-1-2.4-1.4-4-1.4h-7.8l1.3,1.3
			c0.1,0.1,0.2,0.2,0.2,0.4c0.1,0.2,0.1,0.3,0.1,0.5v15.8v1.7c0,0.3-0.9,1.9-0.9,1.9h5.4l-0.5-1c-0.1-0.3-0.3-0.7-0.3-0.9
			c0-0.1,0-0.2,0-0.4v-7.9L320.9,94.8z M313.1,75.9c0.2,0,0.9-0.1,1.4-0.1c1.3,0,2.2,0.3,2.7,0.9c0.4,0.4,0.6,1.1,0.6,1.9
			c0,1-0.3,1.7-0.9,2.3c-0.6,0.6-1.5,0.9-2.7,0.9c-0.3,0-0.7,0-1,0c0,0,0,0,0,0V75.9z"/>
		<path class="st0" d="M204.1,76.7V75c0-0.3,0.9-1.9,0.9-1.9h-5.4c0,0,0.7,1.7,0.7,1.9c0,0.1,0,0.2,0,0.4l0,11.9
			c0,1.3-0.4,2.3-1.3,3.2c-0.8,0.9-1.9,1.3-3.3,1.3c-1.4,0-2.6-0.5-3.6-1.4c-1-0.9-1.5-2-1.5-3.3l0-11.8c0-0.1,0-0.3,0-0.4
			c0-0.1,0.7-1.9,0.7-1.9h-5.4c0,0,0.9,1.6,0.9,1.9v1.7l0,10.7c0,2.3,0.9,4.1,2.6,5.5c1.7,1.4,3.8,2.1,6.2,2.1
			c2.3,0,4.2-0.7,5.8-2.1c1.6-1.4,2.4-3.3,2.4-5.4L204.1,76.7z"/>
		<path class="st0" d="M299,91.1c0,0-0.5,0.3-1.2,0.5c-0.5,0.1-1.2,0.1-1.5,0.1h-5.7v-7.6h4.9c0.5,0,1.2,0.2,1.5,0.4l1,0.5v-3.8
			h-7.5V76h5.3c0.5,0,0.8,0.1,1.1,0.4l1.2,1.1v-4.4h-12.8l1.2,1.2c0.1,0.1,0.2,0.2,0.2,0.4c0.1,0.2,0.1,0.3,0.1,0.5v17.5
			c0,0.5-0.5,1.3-0.7,1.5l-0.3,0.4h13.5l1.5-4.8L299,91.1z"/>
	</g>
</g>
<g>
	<path class="st1" d="M119.6,11.1C119.6,11.1,89.8,0,60,0C30.1,0,0.3,11.1,0.3,11.1S-8,68,60,108.9C127.9,68,119.6,11.1,119.6,11.1z
		"/>
</g>
<g>
	<path class="st2" d="M60,0c29.9,0,59.6,11.1,59.6,11.1S127.9,68,60,108.9V0z"/>
</g>
<g>
	<g>
		<path class="st3" d="M60,97.7V8.5c-23.1,0-51.1,8.8-51.1,8.8S7.3,66,60,97.7z"/>
	</g>
	<g>
		<path class="st3" d="M111,17.3c0,0-27.9-8.8-51.1-8.8v89.2C112.6,66,111,17.3,111,17.3z"/>
	</g>
</g>
<g>
	<path class="st0" d="M60,8.5c23.1,0,51.1,8.8,51.1,8.8S112.6,66,60,97.7V8.5z"/>
</g>
<path id="Whole_3_" class="st4" d="M70.5,35.6l-3.8,8.5l3.8,8.4C83.6,43.2,86,33.6,86,33.6l-7.5-8.5h21.1c0,14.5-9.4,31.5-32,49.7
	L60,55.4l-7.6,19.4c-22.6-18.2-32-35.2-32-49.7h21.1L34,33.6c0,0,2.3,9.6,15.4,18.9l3.8-8.4l-3.8-8.5H70.5z"/>
</svg>
